<?xml version="1.0" encoding="UTF-8"?>
<svg width="100px" height="100px" viewBox="0 0 100 100" version="1.1" xmlns="http://www.w3.org/2000/svg" xmlns:xlink="http://www.w3.org/1999/xlink">
    <title>Artboard</title>
    <g id="Artboard" stroke="none" stroke-width="1" fill="none" fill-rule="evenodd">
        <g id="icon" transform="translate(-0.2531, 8.66)">
            <path d="M85.0911851,19.3057218 C77.8947071,7.44155925 65.0279393,0 50.1671009,0 C28.9007287,0 11.3551361,16.2644858 9.32764545,37.0072752 L1.60758473,37.0072752 C0.371038205,37.0072752 -0.39762585,38.3440823 0.215077382,39.4135279 L5.98562782,49.3950206 L11.7561783,59.3765132 C12.3688815,60.4459589 13.9173497,60.4459589 14.5300529,59.3765132 L20.3006033,49.3950206 L26.0711538,39.4135279 C26.683857,38.3440823 25.915193,37.0072752 24.6786464,37.0072752 L17.4153281,37.0072752 C19.4093986,20.6982292 33.3344721,8.02084231 50.1782409,8.02084231 C63.5351714,8.02084231 75.0651322,15.9859843 80.2563996,27.4156846" id="Path" fill="#FBB946" fill-rule="nonzero"></path>
            <path d="M15.0759158,62.9524721 C22.3503741,74.493573 35.206002,82.1802135 49.8328991,82.1802135 C71.0992713,82.1802135 88.6448639,65.9157277 90.6723545,45.1729383 L98.3924153,45.1729383 C99.6289618,45.1729383 100.397626,43.8361312 99.7849226,42.7666856 L94.0143722,32.7851929 L88.2438217,22.8037003 C87.6311185,21.7342546 86.0826503,21.7342546 85.4699471,22.8037003 L79.6993967,32.7851929 L73.9288462,42.7666856 C73.316143,43.8361312 74.084807,45.1729383 75.3213536,45.1729383 L82.5846719,45.1729383 C80.5906014,61.4819843 66.6655279,74.1593712 49.8217591,74.1593712 C36.6096494,74.1593712 25.1910891,66.3613301 19.9107013,55.1321508" id="Path" fill="#F86226" fill-rule="nonzero"></path>
            <polyline id="Path" stroke="#1A6F66" stroke-width="6.12" stroke-linecap="round" stroke-linejoin="round" points="35.5736239 43.1120274 46.6468423 53.6839432 65.7854633 24.9760117"></polyline>
        </g>
    </g>
</svg>